<?xml version="1.0" encoding="UTF-8" standalone="no"?>
<svg xmlns:dc="http://purl.org/dc/elements/1.1/" xmlns:cc="http://creativecommons.org/ns#" xmlns:rdf="http://www.w3.org/1999/02/22-rdf-syntax-ns#" xmlns:svg="http://www.w3.org/2000/svg" xmlns="http://www.w3.org/2000/svg" id="svg4262" preserveAspectRatio="xMidYMid meet" viewBox="0 0 1800 1800" height="1800pt" width="1800pt" version="1.0">
  <defs id="defs4348"/>
  <metadata id="metadata4264">
Created by potrace 1.12, written by Peter Selinger 2001-2015
<rdf:RDF>
  <cc:Work rdf:about="">
    <dc:format>image/svg+xml</dc:format>
    <dc:type rdf:resource="http://purl.org/dc/dcmitype/StillImage"/>
    <dc:title/>
  </cc:Work>
</rdf:RDF>
</metadata>
  <path d="m 19.016917,154.2 c 0.1,82.7 4.1,109.5 20.3,134.1 10.1,15.3 13.2,18.4 119.200003,117.2 l 77,71.8 0.3,12.9 0.3,13 -2.4,-1.9 c -1.3,-1 -18.3,-16.7 -37.7,-34.8 -19.4,-18.2 -37.1,-34.5 -39.3,-36.4 l -3.9,-3.5 0.5,49.5 c 0.5,53.2 1.4,64.1 6.2,81.2 5.7,19.9 13.3,30.1 42.5,56.2 6.9,6.2 41.8,38.6 77.5,72 l 65,60.8 0.3,11.9 c 0.1,6.5 0,11.8 -0.4,11.8 -0.6,0 -18.3,-16.1 -52.1,-47.2 -10,-9.3 -18.5,-16.8 -18.9,-16.8 -1,0 0.4,63 1.6,74.8 1.6,14.6 4.4,24.6 10,35.7 12,23.8 37,49.4 167,170.6 45.7,42.5 118.9,110 154,141.9 37.2,33.7 42.2,38.7 46.9,46.5 6.8,11.2 10.1,29.5 10.1,56.5 0.1,20.3 1.7,41.8 3.9,50.3 3.1,12 7,18.3 16.4,26.7 8.9,7.9 55.7,52 100.2,94.3 15.4,14.7 28.3,26.7 28.6,26.7 0.3,0 16.6,-37.5 36.2,-83.4 l 35.7,-83.5 -5.8,-5.4 c -39.5,-37.4 -260,-236.4 -335.7,-303.1 -14.6,-12.8 -20.4,-21.6 -22.6,-34 -2.8,-15.4 4.3,-34.7 18.4,-50.1 3.1,-3.5 5.7,-6.7 5.7,-7.2 0,-0.9 -37.8,-37.2 -64.3,-61.6 -21,-19.2 -25.6,-25.3 -30.6,-40.7 -4.4,-13.2 -5.1,-22.6 -5.1,-70.1 l 0,-44.5 -4.7,-5.5 c -28.2,-32.9 -45.1,-91.9 -47.9,-167.2 l -0.7,-17.8 -185.1,-167.5 C 103.81692,196.3 20.216917,121 19.816918,121 c -0.5,0 -0.800001,15 -0.800001,33.2 z" id="path4268" style="fill:#ffe649;fill-opacity:1;stroke:none"/>
  <path d="m 1594.4169,288.4 -185.1,167.5 -0.7,17.8 c -2.8,75.3 -19.7,134.3 -47.9,167.2 l -4.7,5.5 0,44.5 c 0,47.5 -0.7,56.9 -5.1,70.1 -5,15.4 -9.6,21.5 -30.6,40.7 -26.5,24.4 -64.3,60.7 -64.3,61.6 0,0.5 2.6,3.7 5.8,7.2 14,15.4 21.1,34.7 18.3,50.1 -2.2,12.4 -8,21.2 -22.6,34 -75.7,66.7 -296.19998,265.7 -335.69998,303.1 l -5.8,5.4 35.7,83.5 c 19.6,45.9 35.9,83.4 36.2,83.4 0.3,0 13.19998,-12 28.59998,-26.7 44.5,-42.3 91.3,-86.4 100.2,-94.3 9.4,-8.4 13.3,-14.7 16.4,-26.7 2.2,-8.5 3.8,-30 3.9,-50.3 0,-27 3.3,-45.3 10.1,-56.5 4.7,-7.8 9.7,-12.8 46.9,-46.5 35.1,-31.9 108.3,-99.4 154,-141.9 130,-121.2 155,-146.8 167,-170.6 5.6,-11.1 8.4,-21.1 10,-35.7 1.2,-11.8 2.6,-74.8 1.6,-74.8 -0.4,0 -8.9,7.5 -18.9,16.8 -33.8,31.1 -51.5,47.2 -52.1,47.2 -0.4,0 -0.5,-5.3 -0.4,-11.8 l 0.3,-11.9 65,-60.8 c 35.8,-33.4 70.6,-65.8 77.5,-72 29.2,-26.1 36.8,-36.3 42.5,-56.2 4.8,-17.1 5.7,-28 6.2,-81.2 l 0.5,-49.5 -3.9,3.5 c -2.2,1.9 -19.9,18.2 -39.3,36.4 -19.4,18.1 -36.4,33.8 -37.7,34.8 l -2.4,1.9 0.3,-13 0.3,-12.9 77,-71.8 c 42.4,-39.5 81.7,-76.3 87.5,-81.9 41,-39.4 48,-55.5 51,-115.9 1.2,-24.1 1.3,-86.7 0.2,-86.7 -0.4,0 -84,75.3 -185.8,167.4 z" id="path4270" style="fill:#ffe649;fill-opacity:1;stroke:none"/>
  <path d="m 409.31692,466.1 c 1.6,65 14.6,117.1 37.8,151.5 6.7,10 10.8,14.1 73.1,73.3 54.9,52.2 61,58.8 68.8,74.6 5.7,11.6 7.4,19.1 7.4,31.5 -0.1,9.2 -0.5,11.7 -3.4,20 -6.8,19.9 -14.3,32.3 -35,58 -15.2,18.8 -18.5,25.2 -18.4,35.6 0,6.2 0.5,8.2 3.6,14.5 7.4,15 8.3,15.8 135.7,128.8 83.7,74.2 167.6,147.4 209.4,182.5 3.1,2.7 5.7,4.3 5.7,3.6 0,-1.1 -46.7,-237.5 -47.3,-239.3 -0.1,-0.4 -10.4,-10.9 -22.7,-23.2 l -22.5,-22.5 -30,0 -30,0 -28.7,-29.7 c -32.2,-33 -30.1,-29.8 -27.7,-42.9 1.6,-9.5 4.8,-18.2 10.6,-29.4 7.2,-14 16.3,-26.1 30,-39.9 l 11.3,-11.3 0,-27.7 0,-27.7 -163.1,-151.9 c -89.7,-83.6 -163.6,-152.2 -164.2,-152.4 -0.7,-0.2 -0.8,7.3 -0.4,24 z" id="path4272" style="fill:#ffe649;fill-opacity:1;stroke:none"/>
  <path d="m 1226.5169,594 -163,152 -0.3,27.9 -0.2,27.8 11.3,11.4 c 22.6,22.7 36.6,46.7 40.6,69.3 2.4,13.1 4.5,9.9 -27.6,42.9 l -28.8,29.7 -30,0 -29.99998,0 -22.5,22.5 c -12.3,12.3 -22.6,22.8 -22.7,23.2 -0.6,1.8 -47.3,238.2 -47.3,239.3 0,0.7 2.6,-0.9 5.8,-3.6 41.7,-35.1 125.59998,-108.3 209.29998,-182.5 127.4,-113 128.3,-113.8 135.7,-128.8 3.1,-6.3 3.6,-8.3 3.6,-14.5 0.1,-10.4 -3.2,-16.8 -18.4,-35.6 -20.7,-25.7 -28.2,-38.1 -35,-58 -2.9,-8.3 -3.3,-10.8 -3.4,-20 0,-12.4 1.7,-19.9 7.4,-31.5 7.8,-15.8 13.9,-22.4 68.8,-74.6 28.4,-27 55.3,-52.8 59.8,-57.3 25.7,-26 42,-69.1 49,-129.6 1.8,-15.6 3.1,-62 1.8,-62 -0.5,0.1 -74.2,68.5 -163.9,152 z" id="path4274" style="fill:#ffe649;fill-opacity:1;stroke:none"/>
  <path d="m 868.61692,642.2 c -0.3,2.3 -3.8,42.8 -7.6,89.8 l -7,85.5 5.5,4.8 5.5,4.9 0,14.1 0,14.2 17.5,15.3 17.5,15.3 17.5,-15.3 17.5,-15.3 0,-14.2 0,-14.1 5.5,-4.9 5.5,-4.8 -7,-85.5 c -7.1,-86.6 -7.8,-94.5 -8.6,-93.8 -0.2,0.3 -2,9 -3.9,19.4 -3.4,18.2 -3.6,20.7 -5.5,65.9 -1.1,25.8 -2,49.1 -2,51.7 l 0,4.6 -9.5,7.3 -9.5,7.2 -9.5,-7.2 -9.5,-7.3 0,-4.6 c 0,-2.6 -0.9,-25.9 -2,-51.7 -1.9,-45.2 -2.1,-47.7 -5.5,-65.9 -1.9,-10.4 -3.7,-19.1 -3.9,-19.4 -0.3,-0.2 -0.7,1.6 -1,4 z" id="path4276" style="fill:#ffe649;fill-opacity:1;stroke:none"/>
  <path d="m 460.41692,700.8 c 0.5,34 0.9,39.9 2.5,46.5 2.2,8.2 5.4,15.2 9.8,20.9 3.1,4.1 83.2,78.8 84.5,78.8 1.7,0 10.2,-12.9 14.8,-22.5 11.2,-23.3 10.8,-41.5 -1.3,-60.3 -2.5,-3.8 -108.2,-102.2 -109.8,-102.2 -0.7,0 -0.8,12.1 -0.5,38.8 z" id="path4278" style="fill:#ffe649;fill-opacity:1;stroke:none"/>
  <path d="m 1284.8169,711.4 c -29.3,27.2 -54.3,50.9 -55.5,52.8 -6.5,10.2 -9.3,18.9 -9.3,29.7 0,10.1 2.2,18.7 8,30.6 4.6,9.6 13.1,22.5 14.8,22.5 1.3,0 81.4,-74.7 84.5,-78.8 4.4,-5.7 7.6,-12.7 9.8,-20.9 1.6,-6.6 2,-12.5 2.5,-46.5 0.3,-26.7 0.2,-38.8 -0.5,-38.8 -0.6,0 -25,22.2 -54.3,49.4 z" id="path4280" style="fill:#ffe649;fill-opacity:1;stroke:none"/>
  <path d="m 840.91692,868.4 c -7.6,1.2 -7.6,1.2 -18.8,10.6 l -11.3,9.5 19.2,0.3 19.3,0.2 -0.8,9.3 c -0.4,5 -0.8,9.2 -0.8,9.3 -0.1,0 -11.7,2 -25.7,4.4 -14,2.3 -26.7,4.8 -28.2,5.5 -3.1,1.5 -21.8,17.5 -21.8,18.7 0,0.4 18.6,0.8 41.3,0.9 l 41.2,0 22.5,19.9 c 12.4,11 22.7,20 23,20 0.3,0 10.6,-9 23,-20 l 22.5,-19.9 41.3,0 c 22.59998,-0.1 41.19998,-0.5 41.19998,-0.9 0,-1.2 -18.7,-17.2 -21.8,-18.7 -1.5,-0.7 -14.19998,-3.2 -28.19998,-5.5 -14,-2.4 -25.6,-4.4 -25.7,-4.4 0,-0.1 -0.4,-4.3 -0.8,-9.3 l -0.8,-9.3 19.3,-0.2 19.2,-0.3 -11.2,-9.4 -11.2,-9.5 -9,-1.3 c -8.2,-1.2 -9.1,-1.2 -11.2,0.4 -1.2,1 -12,10.6 -24,21.3 -12,10.7 -22.1,19.5 -22.6,19.5 -0.4,0 -11.5,-9.6 -24.6,-21.3 -13.1,-11.6 -24.5,-21.1 -25.3,-21.1 -0.9,0.1 -5,0.7 -9.2,1.3 z" id="path4282" style="fill:#ffe649;fill-opacity:1;stroke:none"/>
  <path d="m 873.51692,1027.2 c 3.5,17.8 10.7,55.4 16.1,83.5 5.4,28.2 10.1,51.3 10.4,51.3 0.3,0 5,-23.1 10.4,-51.3 5.4,-28.1 12.6,-65.7 16.1,-83.5 l 6.2,-32.2 -32.7,0 -32.7,0 6.2,32.2 z" id="path4288" style="fill:#ffe649;fill-opacity:1;stroke:none"/>
  <path d="m 461.21692,1052.5 c 0.4,36.1 0.3,35.5 7.1,49.2 5,10.1 10.7,16.7 31.4,36.6 20.2,19.3 152,141.7 152.6,141.7 0.2,0 -0.2,-2.8 -0.9,-6.3 -0.8,-3.4 -1.4,-11.8 -1.4,-18.7 -0.1,-20.3 -1.9,-49.1 -3.3,-54.5 -0.8,-2.8 -2.1,-6.5 -3.1,-8.3 -1.2,-2.3 -155.9,-148.6 -180.4,-170.6 l -2.3,-2.1 0.3,33 z" id="path4290" style="fill:#ffe649;fill-opacity:1;stroke:none"/>
  <path d="m 1248.3169,1104.4 c -49.6,46.5 -91,86 -91.9,87.8 -1,1.8 -2.3,5.5 -3.1,8.3 -1.4,5.4 -3.2,34.2 -3.3,54.5 0,6.9 -0.6,15.3 -1.4,18.7 -0.7,3.5 -1.1,6.3 -0.9,6.3 0.6,0 132.4,-122.4 152.6,-141.7 20.7,-19.9 26.4,-26.5 31.4,-36.6 6.6,-13.4 6.7,-13.8 7.1,-43.2 0.2,-14.9 0.2,-29.6 0,-32.9 l -0.3,-5.8 -90.2,84.6 z" id="path4292" style="fill:#ffe649;fill-opacity:1;stroke:none"/>
  <path d="m 859.21692,1371.7 -40.2,95.8 19.7,19.2 c 10.8,10.6 19.8,19.1 20.1,18.9 0.2,-0.2 5,-26.3 10.7,-57.9 l 10.3,-57.5 9.7,-14.1 c 5.3,-7.7 10,-14.1 10.5,-14.1 0.5,0 5.2,6.4 10.5,14.1 l 9.7,14.1 10.3,57.5 c 5.7,31.6 10.5,57.7 10.7,57.9 0.3,0.2 9.3,-8.3 20.1,-18.9 l 19.7,-19.2 -40.2,-95.8 c -22.2,-52.6 -40.5,-95.7 -40.8,-95.7 -0.3,0 -18.6,43.1 -40.8,95.7 z" id="path4306" style="fill:#ffe649;fill-opacity:1;stroke:none"/>
  <path d="m 895.11692,1411.9 -3.8,5.9 -6.6,40.4 c -17.2,104.3 -23.9,149.4 -24.1,162.3 -0.1,9.1 0.2,10.5 2.7,15.8 1.6,3.2 5.5,9.4 8.8,13.8 6.9,9.2 25.8,28.9 27.9,28.9 2.1,0 21,-19.7 27.9,-28.9 3.3,-4.4 7.2,-10.6 8.8,-13.8 2.5,-5.3 2.8,-6.7 2.7,-15.8 -0.2,-12.9 -6.9,-58 -24.1,-162.3 l -6.6,-40.4 -3.8,-5.9 c -2.1,-3.2 -4.3,-5.9 -4.9,-5.9 -0.6,0 -2.8,2.7 -4.9,5.9 z" id="path4322" style="fill:#ffe649;fill-opacity:1;stroke:none"/>
</svg>